<mxfile host="app.diagrams.net" modified="2021-07-08T00:47:45.209Z" agent="5.0 (Windows NT 10.0; Win64; x64) AppleWebKit/537.36 (KHTML, like Gecko) Chrome/91.0.4472.124 Safari/537.36" etag="OIOUsRZB7KJAo8ogQBoK" version="14.8.4" type="github">
  <diagram id="RJkKPZP8slwKh4HKeKkk" name="Page-1">
    <mxGraphModel dx="1022" dy="468" grid="1" gridSize="10" guides="1" tooltips="1" connect="1" arrows="1" fold="1" page="1" pageScale="1" pageWidth="850" pageHeight="1100" math="0" shadow="0">
      <root>
        <mxCell id="0" />
        <mxCell id="1" parent="0" />
        <mxCell id="L3qI-I8Uv1mPKK_OJ2oL-13" value="" style="points=[[0.25,0,0],[0.5,0,0],[0.75,0,0],[1,0.25,0],[1,0.5,0],[1,0.75,0],[0.75,1,0],[0.5,1,0],[0.25,1,0],[0,0.75,0],[0,0.5,0],[0,0.25,0]];rounded=1;dashed=1;dashPattern=5 2 1 2;labelPosition=center;verticalLabelPosition=top;align=right;verticalAlign=bottom;fontSize=8;" vertex="1" parent="1">
          <mxGeometry x="544" y="10" width="196" height="130" as="geometry" />
        </mxCell>
        <mxCell id="L3qI-I8Uv1mPKK_OJ2oL-12" value="" style="points=[[0.25,0,0],[0.5,0,0],[0.75,0,0],[1,0.25,0],[1,0.5,0],[1,0.75,0],[0.75,1,0],[0.5,1,0],[0.25,1,0],[0,0.75,0],[0,0.5,0],[0,0.25,0]];rounded=1;dashed=1;dashPattern=5 2 1 2;labelPosition=center;verticalLabelPosition=top;align=right;verticalAlign=bottom;fontSize=8;" vertex="1" parent="1">
          <mxGeometry x="10" y="225" width="260" height="205" as="geometry" />
        </mxCell>
        <mxCell id="hnbQFy9l4szqNXZ4P_oJ-7" value="history" style="swimlane;" parent="1" vertex="1">
          <mxGeometry x="10" y="240" width="160" height="165" as="geometry" />
        </mxCell>
        <mxCell id="hnbQFy9l4szqNXZ4P_oJ-8" value="&lt;span style=&quot;font-size: 14px&quot;&gt;*id&lt;br&gt;amount&lt;br&gt;description&lt;br&gt;**destination_account&lt;br&gt;income&lt;br&gt;**source_account&lt;br&gt;trx_date&lt;br&gt;type&lt;br&gt;va_no&lt;br&gt;&lt;/span&gt;" style="text;html=1;align=left;verticalAlign=middle;resizable=0;points=[];autosize=1;strokeColor=none;" parent="hnbQFy9l4szqNXZ4P_oJ-7" vertex="1">
          <mxGeometry x="10" y="25" width="150" height="140" as="geometry" />
        </mxCell>
        <mxCell id="L3qI-I8Uv1mPKK_OJ2oL-5" value="" style="points=[[0.25,0,0],[0.5,0,0],[0.75,0,0],[1,0.25,0],[1,0.5,0],[1,0.75,0],[0.75,1,0],[0.5,1,0],[0.25,1,0],[0,0.75,0],[0,0.5,0],[0,0.25,0]];rounded=1;dashed=1;dashPattern=5 2 1 2;labelPosition=center;verticalLabelPosition=top;align=right;verticalAlign=bottom;fontSize=8;" vertex="1" parent="1">
          <mxGeometry x="50" y="30" width="190" height="180" as="geometry" />
        </mxCell>
        <mxCell id="hnbQFy9l4szqNXZ4P_oJ-32" value="buat" style="rhombus;whiteSpace=wrap;html=1;" parent="1" vertex="1">
          <mxGeometry x="200" y="310" width="72" height="40" as="geometry" />
        </mxCell>
        <mxCell id="hnbQFy9l4szqNXZ4P_oJ-62" value="M" style="text;html=1;strokeColor=none;fillColor=none;align=center;verticalAlign=middle;whiteSpace=wrap;rounded=0;" parent="1" vertex="1">
          <mxGeometry x="160" y="305" width="40" height="20" as="geometry" />
        </mxCell>
        <mxCell id="hnbQFy9l4szqNXZ4P_oJ-1" value="merchant" style="swimlane;" parent="1" vertex="1">
          <mxGeometry x="260" y="180" width="90" height="20" as="geometry" />
        </mxCell>
        <mxCell id="hnbQFy9l4szqNXZ4P_oJ-3" value="merchant_fee" style="swimlane;" parent="1" vertex="1">
          <mxGeometry x="535" y="180" width="100" height="20" as="geometry" />
        </mxCell>
        <mxCell id="hnbQFy9l4szqNXZ4P_oJ-9" value="login" style="swimlane;" parent="1" vertex="1">
          <mxGeometry x="681" y="150" width="89" height="20" as="geometry" />
        </mxCell>
        <mxCell id="hnbQFy9l4szqNXZ4P_oJ-11" value="login_detail" style="swimlane;" parent="1" vertex="1">
          <mxGeometry x="555" y="327.5" width="75" height="25" as="geometry" />
        </mxCell>
        <mxCell id="hnbQFy9l4szqNXZ4P_oJ-14" value="account_detail" style="swimlane;" parent="1" vertex="1">
          <mxGeometry x="302.5" y="320" width="115" height="20" as="geometry" />
        </mxCell>
        <mxCell id="hnbQFy9l4szqNXZ4P_oJ-18" value="master_data" style="swimlane;" parent="1" vertex="1">
          <mxGeometry x="385.63" y="40" width="118.75" height="20" as="geometry" />
        </mxCell>
        <mxCell id="hnbQFy9l4szqNXZ4P_oJ-28" value="ada" style="rhombus;whiteSpace=wrap;html=1;" parent="1" vertex="1">
          <mxGeometry x="260" y="30" width="72" height="40" as="geometry" />
        </mxCell>
        <mxCell id="hnbQFy9l4szqNXZ4P_oJ-30" value="buat" style="rhombus;whiteSpace=wrap;html=1;" parent="1" vertex="1">
          <mxGeometry x="170" y="110" width="72" height="40" as="geometry" />
        </mxCell>
        <mxCell id="hnbQFy9l4szqNXZ4P_oJ-31" value="ada" style="rhombus;whiteSpace=wrap;html=1;" parent="1" vertex="1">
          <mxGeometry x="407.75" y="170" width="72" height="40" as="geometry" />
        </mxCell>
        <mxCell id="hnbQFy9l4szqNXZ4P_oJ-34" value="ada" style="rhombus;whiteSpace=wrap;html=1;" parent="1" vertex="1">
          <mxGeometry x="458" y="320" width="72" height="40" as="geometry" />
        </mxCell>
        <mxCell id="hnbQFy9l4szqNXZ4P_oJ-35" value="ada" style="rhombus;whiteSpace=wrap;html=1;" parent="1" vertex="1">
          <mxGeometry x="690" y="330" width="72" height="40" as="geometry" />
        </mxCell>
        <mxCell id="hnbQFy9l4szqNXZ4P_oJ-36" value="" style="endArrow=none;html=1;exitX=1;exitY=0.5;exitDx=0;exitDy=0;" parent="1" source="hnbQFy9l4szqNXZ4P_oJ-29" edge="1">
          <mxGeometry width="50" height="50" relative="1" as="geometry">
            <mxPoint x="300" y="220" as="sourcePoint" />
            <mxPoint x="640" y="50" as="targetPoint" />
          </mxGeometry>
        </mxCell>
        <mxCell id="hnbQFy9l4szqNXZ4P_oJ-38" value="" style="endArrow=none;html=1;entryX=0;entryY=0.5;entryDx=0;entryDy=0;" parent="1" target="hnbQFy9l4szqNXZ4P_oJ-29" edge="1">
          <mxGeometry width="50" height="50" relative="1" as="geometry">
            <mxPoint x="508" y="50" as="sourcePoint" />
            <mxPoint x="570" y="80" as="targetPoint" />
          </mxGeometry>
        </mxCell>
        <mxCell id="hnbQFy9l4szqNXZ4P_oJ-39" value="" style="endArrow=none;html=1;exitX=1;exitY=0.5;exitDx=0;exitDy=0;" parent="1" source="hnbQFy9l4szqNXZ4P_oJ-28" edge="1">
          <mxGeometry width="50" height="50" relative="1" as="geometry">
            <mxPoint x="510" y="60" as="sourcePoint" />
            <mxPoint x="380" y="50" as="targetPoint" />
          </mxGeometry>
        </mxCell>
        <mxCell id="hnbQFy9l4szqNXZ4P_oJ-40" value="" style="endArrow=none;html=1;entryX=0.5;entryY=0;entryDx=0;entryDy=0;exitX=1;exitY=0.5;exitDx=0;exitDy=0;" parent="1" target="hnbQFy9l4szqNXZ4P_oJ-30" edge="1" source="hnbQFy9l4szqNXZ4P_oJ-5">
          <mxGeometry width="50" height="50" relative="1" as="geometry">
            <mxPoint x="170" y="50" as="sourcePoint" />
            <mxPoint x="560" y="70" as="targetPoint" />
            <Array as="points">
              <mxPoint x="216" y="50" />
            </Array>
          </mxGeometry>
        </mxCell>
        <mxCell id="hnbQFy9l4szqNXZ4P_oJ-41" value="" style="endArrow=none;html=1;entryX=0;entryY=0.5;entryDx=0;entryDy=0;exitX=0.5;exitY=1;exitDx=0;exitDy=0;" parent="1" source="hnbQFy9l4szqNXZ4P_oJ-30" target="hnbQFy9l4szqNXZ4P_oJ-1" edge="1">
          <mxGeometry width="50" height="50" relative="1" as="geometry">
            <mxPoint x="530" y="80" as="sourcePoint" />
            <mxPoint x="570" y="80" as="targetPoint" />
            <Array as="points">
              <mxPoint x="216" y="190" />
            </Array>
          </mxGeometry>
        </mxCell>
        <mxCell id="hnbQFy9l4szqNXZ4P_oJ-42" value="" style="endArrow=none;html=1;entryX=0.5;entryY=1;entryDx=0;entryDy=0;exitX=0.433;exitY=0.003;exitDx=0;exitDy=0;exitPerimeter=0;" parent="1" source="hnbQFy9l4szqNXZ4P_oJ-1" target="hnbQFy9l4szqNXZ4P_oJ-28" edge="1">
          <mxGeometry width="50" height="50" relative="1" as="geometry">
            <mxPoint x="540" y="90" as="sourcePoint" />
            <mxPoint x="580" y="90" as="targetPoint" />
          </mxGeometry>
        </mxCell>
        <mxCell id="hnbQFy9l4szqNXZ4P_oJ-43" value="" style="endArrow=none;html=1;entryX=0;entryY=0.5;entryDx=0;entryDy=0;exitX=1;exitY=0.5;exitDx=0;exitDy=0;" parent="1" source="hnbQFy9l4szqNXZ4P_oJ-1" target="hnbQFy9l4szqNXZ4P_oJ-31" edge="1">
          <mxGeometry width="50" height="50" relative="1" as="geometry">
            <mxPoint x="550" y="100" as="sourcePoint" />
            <mxPoint x="590" y="100" as="targetPoint" />
          </mxGeometry>
        </mxCell>
        <mxCell id="hnbQFy9l4szqNXZ4P_oJ-45" value="" style="endArrow=none;html=1;entryX=0;entryY=0.5;entryDx=0;entryDy=0;exitX=1;exitY=0.5;exitDx=0;exitDy=0;" parent="1" source="hnbQFy9l4szqNXZ4P_oJ-31" target="hnbQFy9l4szqNXZ4P_oJ-3" edge="1">
          <mxGeometry width="50" height="50" relative="1" as="geometry">
            <mxPoint x="560" y="110" as="sourcePoint" />
            <mxPoint x="600" y="110" as="targetPoint" />
          </mxGeometry>
        </mxCell>
        <mxCell id="hnbQFy9l4szqNXZ4P_oJ-46" value="" style="endArrow=none;html=1;entryX=0;entryY=0.5;entryDx=0;entryDy=0;exitX=1.004;exitY=0.474;exitDx=0;exitDy=0;exitPerimeter=0;" parent="1" target="hnbQFy9l4szqNXZ4P_oJ-32" edge="1" source="hnbQFy9l4szqNXZ4P_oJ-8">
          <mxGeometry width="50" height="50" relative="1" as="geometry">
            <mxPoint x="170" y="330" as="sourcePoint" />
            <mxPoint x="610" y="120" as="targetPoint" />
            <Array as="points">
              <mxPoint x="159" y="330" />
            </Array>
          </mxGeometry>
        </mxCell>
        <mxCell id="hnbQFy9l4szqNXZ4P_oJ-49" value="" style="endArrow=none;html=1;exitX=1;exitY=0.5;exitDx=0;exitDy=0;entryX=0;entryY=0.5;entryDx=0;entryDy=0;" parent="1" source="hnbQFy9l4szqNXZ4P_oJ-32" target="hnbQFy9l4szqNXZ4P_oJ-14" edge="1">
          <mxGeometry width="50" height="50" relative="1" as="geometry">
            <mxPoint x="180" y="340" as="sourcePoint" />
            <mxPoint x="300" y="330" as="targetPoint" />
          </mxGeometry>
        </mxCell>
        <mxCell id="hnbQFy9l4szqNXZ4P_oJ-50" value="" style="endArrow=none;html=1;exitX=1;exitY=0.5;exitDx=0;exitDy=0;entryX=0;entryY=0.5;entryDx=0;entryDy=0;" parent="1" source="hnbQFy9l4szqNXZ4P_oJ-14" target="hnbQFy9l4szqNXZ4P_oJ-34" edge="1">
          <mxGeometry width="50" height="50" relative="1" as="geometry">
            <mxPoint x="480" y="340" as="sourcePoint" />
            <mxPoint x="530" y="290" as="targetPoint" />
          </mxGeometry>
        </mxCell>
        <mxCell id="hnbQFy9l4szqNXZ4P_oJ-51" value="" style="endArrow=none;html=1;entryX=0;entryY=0.5;entryDx=0;entryDy=0;exitX=1;exitY=0.5;exitDx=0;exitDy=0;" parent="1" source="hnbQFy9l4szqNXZ4P_oJ-34" target="hnbQFy9l4szqNXZ4P_oJ-11" edge="1">
          <mxGeometry width="50" height="50" relative="1" as="geometry">
            <mxPoint x="190" y="350" as="sourcePoint" />
            <mxPoint x="220" y="350" as="targetPoint" />
          </mxGeometry>
        </mxCell>
        <mxCell id="hnbQFy9l4szqNXZ4P_oJ-52" value="" style="endArrow=none;html=1;entryX=0;entryY=0.5;entryDx=0;entryDy=0;exitX=1;exitY=0.5;exitDx=0;exitDy=0;" parent="1" source="hnbQFy9l4szqNXZ4P_oJ-11" target="hnbQFy9l4szqNXZ4P_oJ-35" edge="1">
          <mxGeometry width="50" height="50" relative="1" as="geometry">
            <mxPoint x="200" y="360" as="sourcePoint" />
            <mxPoint x="230" y="360" as="targetPoint" />
          </mxGeometry>
        </mxCell>
        <mxCell id="hnbQFy9l4szqNXZ4P_oJ-53" value="" style="endArrow=none;html=1;entryX=0;entryY=0.5;entryDx=0;entryDy=0;exitX=0.5;exitY=0;exitDx=0;exitDy=0;" parent="1" source="hnbQFy9l4szqNXZ4P_oJ-35" target="hnbQFy9l4szqNXZ4P_oJ-9" edge="1">
          <mxGeometry width="50" height="50" relative="1" as="geometry">
            <mxPoint x="210" y="370" as="sourcePoint" />
            <mxPoint x="240" y="370" as="targetPoint" />
            <Array as="points">
              <mxPoint x="680" y="250" />
            </Array>
          </mxGeometry>
        </mxCell>
        <mxCell id="hnbQFy9l4szqNXZ4P_oJ-54" value="ada" style="rhombus;whiteSpace=wrap;html=1;" parent="1" vertex="1">
          <mxGeometry x="435.5" y="220" width="72" height="40" as="geometry" />
        </mxCell>
        <mxCell id="hnbQFy9l4szqNXZ4P_oJ-55" value="" style="endArrow=none;html=1;entryX=0.5;entryY=1;entryDx=0;entryDy=0;exitX=1;exitY=0.25;exitDx=0;exitDy=0;" parent="1" source="hnbQFy9l4szqNXZ4P_oJ-14" target="hnbQFy9l4szqNXZ4P_oJ-54" edge="1">
          <mxGeometry width="50" height="50" relative="1" as="geometry">
            <mxPoint x="180" y="340" as="sourcePoint" />
            <mxPoint x="210" y="340" as="targetPoint" />
            <Array as="points">
              <mxPoint x="472" y="300" />
            </Array>
          </mxGeometry>
        </mxCell>
        <mxCell id="hnbQFy9l4szqNXZ4P_oJ-56" value="" style="endArrow=none;html=1;entryX=0;entryY=0.5;entryDx=0;entryDy=0;exitX=0.889;exitY=1.05;exitDx=0;exitDy=0;exitPerimeter=0;" parent="1" target="hnbQFy9l4szqNXZ4P_oJ-54" edge="1" source="hnbQFy9l4szqNXZ4P_oJ-1">
          <mxGeometry width="50" height="50" relative="1" as="geometry">
            <mxPoint x="350" y="240" as="sourcePoint" />
            <mxPoint x="220" y="350" as="targetPoint" />
            <Array as="points">
              <mxPoint x="360" y="240" />
            </Array>
          </mxGeometry>
        </mxCell>
        <mxCell id="hnbQFy9l4szqNXZ4P_oJ-57" value="1" style="text;html=1;strokeColor=none;fillColor=none;align=center;verticalAlign=middle;whiteSpace=wrap;rounded=0;" parent="1" vertex="1">
          <mxGeometry x="232" y="190" width="40" height="20" as="geometry" />
        </mxCell>
        <mxCell id="hnbQFy9l4szqNXZ4P_oJ-58" value="M" style="text;html=1;strokeColor=none;fillColor=none;align=center;verticalAlign=middle;whiteSpace=wrap;rounded=0;" parent="1" vertex="1">
          <mxGeometry x="180" y="80" width="40" height="20" as="geometry" />
        </mxCell>
        <mxCell id="hnbQFy9l4szqNXZ4P_oJ-64" value="1" style="text;html=1;strokeColor=none;fillColor=none;align=center;verticalAlign=middle;whiteSpace=wrap;rounded=0;" parent="1" vertex="1">
          <mxGeometry x="260" y="305" width="40" height="20" as="geometry" />
        </mxCell>
        <mxCell id="hnbQFy9l4szqNXZ4P_oJ-65" value="1" style="text;html=1;strokeColor=none;fillColor=none;align=center;verticalAlign=middle;whiteSpace=wrap;rounded=0;" parent="1" vertex="1">
          <mxGeometry x="292" y="90" width="40" height="20" as="geometry" />
        </mxCell>
        <mxCell id="hnbQFy9l4szqNXZ4P_oJ-66" value="1" style="text;html=1;strokeColor=none;fillColor=none;align=center;verticalAlign=middle;whiteSpace=wrap;rounded=0;" parent="1" vertex="1">
          <mxGeometry x="340" y="30" width="40" height="20" as="geometry" />
        </mxCell>
        <mxCell id="hnbQFy9l4szqNXZ4P_oJ-67" value="1" style="text;html=1;strokeColor=none;fillColor=none;align=center;verticalAlign=middle;whiteSpace=wrap;rounded=0;" parent="1" vertex="1">
          <mxGeometry x="360" y="170" width="40" height="20" as="geometry" />
        </mxCell>
        <mxCell id="hnbQFy9l4szqNXZ4P_oJ-68" value="1" style="text;html=1;strokeColor=none;fillColor=none;align=center;verticalAlign=middle;whiteSpace=wrap;rounded=0;" parent="1" vertex="1">
          <mxGeometry x="490" y="170" width="40" height="20" as="geometry" />
        </mxCell>
        <mxCell id="hnbQFy9l4szqNXZ4P_oJ-69" value="1" style="text;html=1;strokeColor=none;fillColor=none;align=center;verticalAlign=middle;whiteSpace=wrap;rounded=0;" parent="1" vertex="1">
          <mxGeometry x="367.75" y="220" width="40" height="20" as="geometry" />
        </mxCell>
        <mxCell id="hnbQFy9l4szqNXZ4P_oJ-70" value="1" style="text;html=1;strokeColor=none;fillColor=none;align=center;verticalAlign=middle;whiteSpace=wrap;rounded=0;" parent="1" vertex="1">
          <mxGeometry x="458" y="270" width="40" height="20" as="geometry" />
        </mxCell>
        <mxCell id="hnbQFy9l4szqNXZ4P_oJ-71" value="1" style="text;html=1;strokeColor=none;fillColor=none;align=center;verticalAlign=middle;whiteSpace=wrap;rounded=0;" parent="1" vertex="1">
          <mxGeometry x="425" y="320" width="40" height="20" as="geometry" />
        </mxCell>
        <mxCell id="hnbQFy9l4szqNXZ4P_oJ-72" value="1" style="text;html=1;strokeColor=none;fillColor=none;align=center;verticalAlign=middle;whiteSpace=wrap;rounded=0;" parent="1" vertex="1">
          <mxGeometry x="515" y="320" width="40" height="20" as="geometry" />
        </mxCell>
        <mxCell id="hnbQFy9l4szqNXZ4P_oJ-73" value="1" style="text;html=1;strokeColor=none;fillColor=none;align=center;verticalAlign=middle;whiteSpace=wrap;rounded=0;" parent="1" vertex="1">
          <mxGeometry x="650" y="330" width="40" height="20" as="geometry" />
        </mxCell>
        <mxCell id="hnbQFy9l4szqNXZ4P_oJ-74" value="1" style="text;html=1;strokeColor=none;fillColor=none;align=center;verticalAlign=middle;whiteSpace=wrap;rounded=0;" parent="1" vertex="1">
          <mxGeometry x="710" y="290" width="40" height="20" as="geometry" />
        </mxCell>
        <mxCell id="hnbQFy9l4szqNXZ4P_oJ-75" value="1" style="text;html=1;strokeColor=none;fillColor=none;align=center;verticalAlign=middle;whiteSpace=wrap;rounded=0;" parent="1" vertex="1">
          <mxGeometry x="507.5" y="30" width="40" height="20" as="geometry" />
        </mxCell>
        <mxCell id="hnbQFy9l4szqNXZ4P_oJ-15" value="&lt;span style=&quot;font-size: 14px&quot;&gt;*no&lt;br&gt;&lt;/span&gt;address&lt;br&gt;balance&lt;br&gt;email&lt;br&gt;id_number&lt;br&gt;id_type&lt;br&gt;name&lt;br&gt;phone_number&lt;br&gt;pin_number" style="text;html=1;align=left;verticalAlign=middle;resizable=0;points=[];autosize=1;strokeColor=none;" parent="1" vertex="1">
          <mxGeometry x="310" y="340" width="100" height="130" as="geometry" />
        </mxCell>
        <mxCell id="hnbQFy9l4szqNXZ4P_oJ-12" value="&lt;span style=&quot;font-size: 14px&quot;&gt;*email&lt;br&gt;name&lt;br&gt;**account&lt;br&gt;&lt;/span&gt;" style="text;html=1;align=left;verticalAlign=middle;resizable=0;points=[];autosize=1;strokeColor=none;" parent="1" vertex="1">
          <mxGeometry x="570" y="360" width="80" height="50" as="geometry" />
        </mxCell>
        <mxCell id="hnbQFy9l4szqNXZ4P_oJ-2" value="&lt;font style=&quot;font-size: 14px&quot;&gt;*id&lt;br&gt;name&lt;br&gt;type&lt;br&gt;**account&lt;/font&gt;" style="text;html=1;align=left;verticalAlign=middle;resizable=0;points=[];autosize=1;strokeColor=none;" parent="1" vertex="1">
          <mxGeometry x="275" y="205" width="80" height="70" as="geometry" />
        </mxCell>
        <mxCell id="hnbQFy9l4szqNXZ4P_oJ-4" value="&lt;font style=&quot;font-size: 14px&quot;&gt;*id&lt;br&gt;type&lt;br&gt;value&lt;br&gt;**id_merchant&lt;/font&gt;" style="text;html=1;align=left;verticalAlign=middle;resizable=0;points=[];autosize=1;strokeColor=none;" parent="1" vertex="1">
          <mxGeometry x="540" y="205" width="100" height="70" as="geometry" />
        </mxCell>
        <mxCell id="hnbQFy9l4szqNXZ4P_oJ-10" value="&lt;span style=&quot;font-size: 14px&quot;&gt;*id&lt;br&gt;device_id&lt;br&gt;last_login&lt;br&gt;otp&lt;br&gt;password&lt;br&gt;**email&lt;br&gt;&lt;/span&gt;" style="text;html=1;align=left;verticalAlign=middle;resizable=0;points=[];autosize=1;strokeColor=none;" parent="1" vertex="1">
          <mxGeometry x="690" y="170" width="80" height="100" as="geometry" />
        </mxCell>
        <mxCell id="hnbQFy9l4szqNXZ4P_oJ-19" value="&lt;span style=&quot;font-size: 14px&quot;&gt;*skey&lt;br&gt;&lt;/span&gt;encrypt_key&lt;br&gt;ip_address&lt;br&gt;partner_name&lt;br&gt;url&lt;br&gt;**merchant_id" style="text;html=1;align=left;verticalAlign=middle;resizable=0;points=[];autosize=1;strokeColor=none;" parent="1" vertex="1">
          <mxGeometry x="400.01" y="60" width="90" height="90" as="geometry" />
        </mxCell>
        <mxCell id="hnbQFy9l4szqNXZ4P_oJ-6" value="&lt;font style=&quot;font-size: 14px&quot;&gt;*va_no&lt;br&gt;amount&lt;br&gt;created_date&lt;br&gt;description&lt;br&gt;expired_date&lt;br&gt;name&lt;br&gt;status_trx&lt;br&gt;**id_merchant&lt;/font&gt;" style="text;html=1;align=left;verticalAlign=middle;resizable=0;points=[];autosize=1;strokeColor=none;" parent="1" vertex="1">
          <mxGeometry x="58.75" y="70" width="100" height="130" as="geometry" />
        </mxCell>
        <mxCell id="hnbQFy9l4szqNXZ4P_oJ-5" value="va" style="swimlane;" parent="1" vertex="1">
          <mxGeometry x="60" y="40" width="100" height="20" as="geometry" />
        </mxCell>
        <mxCell id="hnbQFy9l4szqNXZ4P_oJ-16" value="route" style="swimlane;" parent="1" vertex="1">
          <mxGeometry x="640" y="30" width="90" height="20" as="geometry" />
        </mxCell>
        <mxCell id="hnbQFy9l4szqNXZ4P_oJ-29" value="ada" style="rhombus;whiteSpace=wrap;html=1;" parent="1" vertex="1">
          <mxGeometry x="544" y="30" width="72" height="40" as="geometry" />
        </mxCell>
        <mxCell id="hnbQFy9l4szqNXZ4P_oJ-77" value="M" style="text;html=1;strokeColor=none;fillColor=none;align=center;verticalAlign=middle;whiteSpace=wrap;rounded=0;" parent="1" vertex="1">
          <mxGeometry x="600" y="30" width="40" height="20" as="geometry" />
        </mxCell>
        <mxCell id="hnbQFy9l4szqNXZ4P_oJ-17" value="&lt;span style=&quot;font-size: 14px&quot;&gt;*id&lt;br&gt;end_point&lt;br&gt;route&lt;br&gt;**skey&lt;br&gt;&lt;/span&gt;" style="text;html=1;align=left;verticalAlign=middle;resizable=0;points=[];autosize=1;strokeColor=none;" parent="1" vertex="1">
          <mxGeometry x="650" y="60" width="80" height="70" as="geometry" />
        </mxCell>
      </root>
    </mxGraphModel>
  </diagram>
</mxfile>
